<svg width="48" height="48" viewBox="0 0 48 48" fill="none" xmlns="http://www.w3.org/2000/svg">
<circle cx="24" cy="24" r="24" fill="#415DF3"/>
<path d="M24.536 11.8C27.752 11.8 30.272 12.568 32.096 14.104C33.92 15.64 34.832 17.752 34.832 20.44C34.832 23.128 33.92 25.24 32.096 26.776C30.272 28.288 27.752 29.044 24.536 29.044H17.768V37H15.104V11.8H24.536ZM24.464 26.704C26.96 26.704 28.868 26.164 30.188 25.084C31.508 23.98 32.168 22.432 32.168 20.44C32.168 18.4 31.508 16.84 30.188 15.76C28.868 14.656 26.96 14.104 24.464 14.104H17.768V26.704H24.464Z" fill="white"/>
</svg>
